# xmcd
#
# Track frame offsets: 
#        150
#        17334
#        31180
#        47696
#        75300
#        102193
#        116131
#        135095
#        151262
#        166130
#        184098
#        203363
#        240579
#
# Disc length: 3859 seconds
#
# Revision: 0
# Processed by: cddbd v1.5.2PL0 Copyright (c) Steve Scherf et al.
# Submitted via: ExactAudioCopy v0.95b3
#
DISCID=860f110d
DTITLE=Disfigured Dead - Visions Of Death
DYEAR=2010
DGENRE=Death Metal
TTITLE0=Beyond The Darkness
TTITLE1=The Gates Of Hell
TTITLE2=Screamatorium
TTITLE3=Mentally Mutilated
TTITLE4=Welcome To The Morgue
TTITLE5=Act Of An Unsound Mind
TTITLE6=Dead But Walking
TTITLE7=Trapped Between Worlds
TTITLE8=Visions Of Death
TTITLE9=They Hear Your Heart Beating
TTITLE10=Possessed Dead
TTITLE11=Eternally Entombed
TTITLE12=Possessed Dead (Video)
EXTD=
EXTT0=
EXTT1=
EXTT2=
EXTT3=
EXTT4=
EXTT5=
EXTT6=
EXTT7=
EXTT8=
EXTT9=
EXTT10=
EXTT11=
EXTT12=
PLAYORDER=
